Coordinates
version=1
nRows=14
nColumns=40
inDegrees=yes

Units are S.I. units (second, meters, Newtons, ...)
If the header above contains a line with 'inDegrees', this indicates whether rotational values are in degrees (yes) or radians (no).

endheader
time	pelvis_tilt	pelvis_list	pelvis_rotation	pelvis_tx	pelvis_ty	pelvis_tz	hip_flexion_r	hip_adduction_r	hip_rotation_r	knee_angle_r	knee_angle_r_beta	ankle_angle_r	subtalar_angle_r	mtp_angle_r	hip_flexion_l	hip_adduction_l	hip_rotation_l	knee_angle_l	knee_angle_l_beta	ankle_angle_l	subtalar_angle_l	mtp_angle_l	lumbar_extension	lumbar_bending	lumbar_rotation	arm_flex_r	arm_add_r	arm_rot_r	elbow_flex_r	pro_sup_r	wrist_flex_r	wrist_dev_r	arm_flex_l	arm_add_l	arm_rot_l	elbow_flex_l	pro_sup_l	wrist_flex_l	wrist_dev_l
      3.00000000	      5.85637711	      3.27884495	      1.96536685	     -0.39955217	      0.78814197	     -0.76969639	     45.54966985	      3.83776068	      1.58595714	     87.84462437	      1.53317793	     31.36130029	      0.00000000	      0.00000000	     65.00977739	      5.43451037	      2.39853879	     17.66348465	      0.30828596	     -3.45121342	      0.00000000	      0.00000000	    -41.07203644	     -1.54793712	     -1.91052935	     89.93425132	    -12.46386781	      9.61594949	     53.37609202	     86.70497836	      0.00000000	      0.00000000	     89.94145835	     -6.21855949	      9.30772162	     53.24211080	     85.33361631	      0.00000000	      0.00000000
      3.00500000	      5.83142490	      3.28662807	      1.93989190	     -0.39954285	      0.78804298	     -0.76962466	     45.58446024	      3.81635022	      1.55292473	     87.86479398	      1.53352995	     31.44319634	      0.00000000	      0.00000000	     65.02374527	      5.38424637	      2.38655504	     17.68224511	      0.30861340	     -3.45334443	      0.00000000	      0.00000000	    -41.05229396	     -1.57498499	     -1.91889541	     89.93461729	    -12.49571454	      9.96195153	     53.35830883	     84.31356425	      0.00000000	      0.00000000	     89.94163934	     -6.25725803	      9.55200661	     53.25393139	     82.81183469	      0.00000000	      0.00000000
      3.01000000	      5.80300431	      3.28907733	      1.94171959	     -0.39958646	      0.78800538	     -0.76958674	     45.62159523	      3.82816222	      1.57931411	     87.85950464	      1.53343764	     31.34779112	      0.00000000	      0.00000000	     65.05079999	      5.36344161	      2.34668491	     17.73831896	      0.30959207	     -3.42675071	      0.00000000	      0.00000000	    -41.05912088	     -1.56675097	     -1.96253824	     89.93452866	    -12.41121598	      9.63256776	     53.39326639	     86.62677952	      0.00000000	      0.00000000	     89.94158548	     -6.26302005	      9.18983814	     53.31647613	     85.55431824	      0.00000000	      0.00000000
      3.01500000	      5.78654009	      3.28891982	      1.92474326	     -0.39958307	      0.78795346	     -0.76952458	     45.64373718	      3.83761618	      1.58831404	     87.86428585	      1.53352108	     31.34173906	      0.00000000	      0.00000000	     65.05791607	      5.32500377	      2.34809553	     17.77811837	      0.31028670	     -3.40649645	      0.00000000	      0.00000000	    -41.06055202	     -1.57868317	     -1.96402260	     89.93450989	    -12.42313480	      9.69207647	     53.42885008	     86.63273512	      0.00000000	      0.00000000	     89.94179277	     -6.26781930	      9.16550972	     53.34425368	     85.53040524	      0.00000000	      0.00000000
      3.02000000	      5.77152901	      3.28641809	      1.90815700	     -0.39956398	      0.78790303	     -0.76944636	     45.66211546	      3.85693269	      1.59530012	     87.86241033	      1.53348835	     31.32682801	      0.00000000	      0.00000000	     65.05933259	      5.28223111	      2.32546204	     17.80317784	      0.31072407	     -3.36532530	      0.00000000	      0.00000000	    -41.05335362	     -1.58116060	     -1.98123412	     89.93460927	    -12.39885585	      9.67934457	     53.45022742	     86.63633295	      0.00000000	      0.00000000	     89.94186572	     -6.30138788	      9.13991538	     53.35946159	     85.43594190	      0.00000000	      0.00000000
      3.02500000	      5.75857766	      3.29774508	      1.90905747	     -0.39959674	      0.78790372	     -0.76937795	     45.68349815	      3.83945374	      1.59900380	     87.86675360	      1.53356415	     31.32349209	      0.00000000	      0.00000000	     65.03434543	      5.26448596	      2.36055489	     17.77642754	      0.31025719	     -3.39533688	      0.00000000	      0.00000000	    -41.06881739	     -1.60530257	     -2.00822312	     89.93499920	    -12.39340582	      9.64851886	     53.43709339	     87.01903056	      0.00000000	      0.00000000	     89.94175453	     -6.26711255	      9.13995309	     53.43263682	     84.42710171	      0.00000000	      0.00000000
      3.03000000	      5.74771510	      3.27070864	      1.90833688	     -0.39959865	      0.78787354	     -0.76932892	     45.69466609	      3.84932918	      1.55044682	     87.86197294	      1.53348072	     31.31865359	      0.00000000	      0.00000000	     65.01093478	      5.22593451	      2.43987163	     17.75515562	      0.30988592	     -3.40326954	      0.00000000	      0.00000000	    -41.07066141	     -1.55748782	     -2.01591557	     89.93494382	    -12.37245247	      9.75042371	     53.46638428	     86.39942303	      0.00000000	      0.00000000	     89.94215123	     -6.37901771	      9.20053623	     53.48699250	     84.44004257	      0.00000000	      0.00000000
      3.03500000	      5.70179480	      3.31119175	      1.92344752	     -0.39959516	      0.78781673	     -0.76928984	     45.73873292	      3.81899914	      1.58424420	     87.86531438	      1.53353903	     31.32205876	      0.00000000	      0.00000000	     65.03913492	      5.22861544	      2.34579291	     17.78053792	      0.31032893	     -3.36929002	      0.00000000	      0.00000000	    -41.04244428	     -1.58559555	     -2.13330612	     89.93495586	    -12.22017615	      9.56233950	     53.40943177	     87.01248452	      0.00000000	      0.00000000	     89.94212132	     -6.42761498	      9.14789172	     53.53937895	     84.22397907	      0.00000000	      0.00000000
      3.04000000	      5.70530916	      3.32031508	      1.90197279	     -0.39958566	      0.78780190	     -0.76924370	     45.74838165	      3.84997810	      1.63369383	     87.88539687	      1.53388954	     31.30608280	      0.00000000	      0.00000000	     65.03312869	      5.19565298	      2.29755701	     17.84259731	      0.31141207	     -3.25061533	      0.00000000	      0.00000000	    -41.06923550	     -1.62444602	     -2.01960737	     89.93464251	    -12.54113596	      9.94352357	     53.58789892	     86.74764620	      0.00000000	      0.00000000	     89.94276606	     -6.22464733	      8.91509919	     53.48018066	     85.20740488	      0.00000000	      0.00000000
      3.04500000	      5.62500978	      3.26703179	      1.84153370	     -0.39962382	      0.78759219	     -0.76902910	     45.88021881	      3.97789359	      1.67088451	     87.92372221	      1.53455844	     31.14813133	      0.00000000	      0.00000000	     65.16435120	      5.05806618	      2.22119037	     17.98157413	      0.31383767	     -3.17908895	      0.00000000	      0.00000000	    -40.96752304	     -1.62183575	     -1.96671139	     89.93518424	    -12.41075541	     10.07889982	     53.46201140	     83.57033483	      0.00000000	      0.00000000	     89.94261263	     -6.21173496	      9.12287919	     53.41190759	     82.11763447	      0.00000000	      0.00000000
      3.05000000	      5.63438262	      3.30834233	      1.97113472	     -0.39962724	      0.78768308	     -0.76921206	     45.83748116	      3.79373683	      1.54630643	     87.89621278	      1.53407831	     31.31689008	      0.00000000	      0.00000000	     65.03991068	      5.20168437	      2.41799548	     17.80092117	      0.31068468	     -3.28701845	      0.00000000	      0.00000000	    -41.02782101	     -1.55819673	     -2.16035742	     89.93519589	    -12.35693552	      9.80259970	     53.53940752	     86.55629862	      0.00000000	      0.00000000	     89.94259278	     -6.36353359	      8.86400151	     53.57662831	     85.57066091	      0.00000000	      0.00000000
      3.05500000	      5.59317718	      3.27548763	      1.89083238	     -0.39963336	      0.78760326	     -0.76901154	     45.89237983	      3.95058239	      1.67604743	     87.86583547	      1.53354813	     31.13188889	      0.00000000	      0.00000000	     65.13479185	      5.07602363	      2.30576225	     17.97744382	      0.31376559	     -3.20399801	      0.00000000	      0.00000000	    -40.96657155	     -1.58107365	     -2.07073146	     89.93596587	    -12.31342974	     10.10454110	     53.44341364	     83.11436582	      0.00000000	      0.00000000	     89.94289640	     -6.29221631	      9.07528801	     53.49604718	     82.11626217	      0.00000000	      0.00000000
      3.06000000	      5.61661011	      3.31530658	      1.98675627	     -0.39963694	      0.78772785	     -0.76908645	     45.84357721	      3.82508582	      1.57203108	     87.86761578	      1.53357920	     31.28066583	      0.00000000	      0.00000000	     65.00458607	      5.17703723	      2.43508862	     17.81510698	      0.31093227	     -3.34230098	      0.00000000	      0.00000000	    -41.05177066	     -1.54752750	     -2.23791597	     89.93537765	    -12.28414296	      9.74746442	     53.57456221	     86.60371210	      0.00000000	      0.00000000	     89.94277745	     -6.39403868	      8.71822623	     53.66381425	     85.48211925	      0.00000000	      0.00000000
      3.06500000	      5.59676383	      3.29947937	      2.01632598	     -0.39961543	      0.78772051	     -0.76907608	     45.85681122	      3.82518579	      1.54919792	     87.86275888	      1.53349443	     31.31243405	      0.00000000	      0.00000000	     64.99249107	      5.17875341	      2.53487478	     17.81080964	      0.31085727	     -3.29609704	      0.00000000	      0.00000000	    -41.04637919	     -1.51097853	     -2.25714249	     89.93546405	    -12.30432037	      9.79500276	     53.60997284	     86.67745329	      0.00000000	      0.00000000	     89.94287457	     -6.42328027	      8.75312770	     53.72746423	     85.32602808	      0.00000000	      0.00000000
